<svg width="20" height="20" fill="none" xmlns="http://www.w3.org/2000/svg"><path d="M17.5 12.533V3.75c0-.862-.701-1.563-1.563-1.563h-.624v-.624a.939.939 0 00-1.876 0v.625h-1.562v-.626a.939.939 0 00-1.875 0v.625H8.125v-.624a.939.939 0 00-1.875 0v.625H4.687v-.626a.939.939 0 00-1.875 0v.625h-.624c-.862 0-1.563.701-1.563 1.563v12.5c0 .861.701 1.563 1.563 1.563h10.507a3.75 3.75 0 003.242 1.875 3.754 3.754 0 003.75-3.75c0-1.51-.898-2.811-2.187-3.405zm-3.438-10.97a.313.313 0 01.626 0v1.875a.313.313 0 01-.626 0V1.562zm-3.437 0a.313.313 0 01.625 0v1.875a.313.313 0 01-.625 0V1.562zm-3.75 0a.313.313 0 01.625 0v1.875a.313.313 0 01-.625 0V1.562zm-3.438 0a.313.313 0 01.626 0v1.875a.313.313 0 01-.625 0V1.562zm-1.25 1.25h.626v.624a.939.939 0 001.874 0v-.624H6.25v.624a.939.939 0 001.875 0v-.624H10v.624a.939.939 0 001.875 0v-.624h1.563v.624a.939.939 0 001.874 0v-.624h.626c.516 0 .937.42.937.937v1.563H1.25V3.75c0-.517.42-.938.938-.938zm0 14.374a.939.939 0 01-.937-.937V5.937h15.625v6.374a3.733 3.733 0 00-.938-.123c-.213 0-.42.021-.624.056v-1.619a.312.312 0 00-.313-.313h-1.875a.312.312 0 00-.313.313V12.5c0 .173.14.313.313.313h.744a3.725 3.725 0 00-1.463 4.375H2.187zm12.5-5h-1.25v-1.25h1.25v1.25zm1.25 6.876a3.129 3.129 0 01-3.124-3.125 3.129 3.129 0 013.124-3.126 3.129 3.129 0 013.126 3.126 3.129 3.129 0 01-3.125 3.124z" fill="#FF4A17"/><path d="M16.25 15.4v-1.963h-.625V15.4a.622.622 0 00-.313.539c0 .031.005.061.01.092l-1.142.913.39.489 1.141-.913a.62.62 0 00.851-.581.624.624 0 00-.312-.539zM4.688 6.875H2.813a.312.312 0 00-.313.313v1.875c0 .172.14.312.313.312h1.874c.173 0 .313-.14.313-.313V7.188a.312.312 0 00-.313-.313zM4.375 8.75h-1.25V7.5h1.25v1.25zm3.75-1.875H6.25a.312.312 0 00-.313.313v1.875c0 .172.14.312.313.312h1.875c.173 0 .313-.14.313-.313V7.188a.312.312 0 00-.313-.313zM7.812 8.75h-1.25V7.5h1.25v1.25zm3.751-1.875H9.687a.312.312 0 00-.312.313v1.875c0 .172.14.312.313.312h1.874c.173 0 .313-.14.313-.313V7.188a.312.312 0 00-.313-.313zM11.25 8.75H10V7.5h1.25v1.25zm1.875.625H15c.173 0 .313-.14.313-.313V7.188A.312.312 0 0015 6.875h-1.875a.312.312 0 00-.313.313v1.875c0 .172.14.312.313.312zm.313-1.875h1.25v1.25h-1.25V7.5zm-8.75 2.813H2.813a.312.312 0 00-.313.312V12.5c0 .173.14.313.313.313h1.874c.173 0 .313-.14.313-.313v-1.875a.312.312 0 00-.313-.313zm-.313 1.874h-1.25v-1.25h1.25v1.25zm3.75-1.874H6.25a.312.312 0 00-.313.312V12.5c0 .173.14.313.313.313h1.875c.173 0 .313-.14.313-.313v-1.875a.312.312 0 00-.313-.313zm-.313 1.874h-1.25v-1.25h1.25v1.25zm3.751-1.874H9.687a.312.312 0 00-.312.312V12.5c0 .173.14.313.313.313h1.874c.173 0 .313-.14.313-.313v-1.875a.312.312 0 00-.313-.313zm-.313 1.874H10v-1.25h1.25v1.25zM4.688 13.75H2.813a.312.312 0 00-.313.313v1.874c0 .173.14.313.313.313h1.874c.173 0 .313-.14.313-.313v-1.874a.312.312 0 00-.313-.313zm-.313 1.875h-1.25v-1.25h1.25v1.25zm3.75-1.875H6.25a.312.312 0 00-.313.313v1.874c0 .173.14.313.313.313h1.875c.173 0 .313-.14.313-.313v-1.874a.312.312 0 00-.313-.313zm-.313 1.875h-1.25v-1.25h1.25v1.25zm3.751-1.875H9.687a.312.312 0 00-.312.313v1.874c0 .173.14.313.313.313h1.874c.173 0 .313-.14.313-.313v-1.874a.312.312 0 00-.313-.313zm-.313 1.875H10v-1.25h1.25v1.25z" fill="#FF4A17"/></svg>