<svg width="24" height="24" fill="none" xmlns="http://www.w3.org/2000/svg"><path d="M11.246 6.215a1.172 1.172 0 112.344 0 1.172 1.172 0 01-2.344 0zm1.81 8.625a.384.384 0 01-.411-.037.383.383 0 01-.162-.349l.744-2.96a2.267 2.267 0 00-.883-2.261A2.267 2.267 0 0010 9.021l-.768.375.822 1.685.768-.375a.384.384 0 01.412.038.38.38 0 01.161.348l-.744 2.96a2.267 2.267 0 00.883 2.261 2.27 2.27 0 002.344.212l.637-.31-.822-1.686-.637.31zM24 11.04c0 1.696-.325 3.22-.965 4.53a8.396 8.396 0 01-2.664 3.14c-2.052 1.483-4.947 2.267-8.371 2.267-.958 0-1.884-.062-2.758-.184-1.985 1.99-4.425 2.105-4.957 2.105h-.02l-1.685-.002.89-1.43c.005-.008.52-.858.918-2.262C1.513 17.517 0 14.71 0 11.04c0-1.697.325-3.22.965-4.53a8.397 8.397 0 012.664-3.14C5.68 1.884 8.576 1.101 12 1.101c3.424 0 6.319.783 8.371 2.266a8.397 8.397 0 012.664 3.141c.64 1.31.965 2.833.965 4.53zm-1.875 0c0-2.715-.96-4.785-2.852-6.152-1.73-1.25-4.246-1.911-7.273-1.911-3.027 0-5.542.66-7.273 1.911-1.893 1.367-2.852 3.437-2.852 6.151 0 3.229 1.35 5.532 4.015 6.846l.66.326-.16.718a13.884 13.884 0 01-.534 1.818 5.26 5.26 0 002.327-1.568l.345-.4.522.088c.917.155 1.91.235 2.95.235 3.027 0 5.543-.662 7.273-1.912 1.893-1.367 2.852-3.437 2.852-6.15z" fill="#fff"/></svg>