<svg width="60" height="60" fill="none" xmlns="http://www.w3.org/2000/svg"><path d="M48 24c6.617 0 12-5.383 12-12S54.617 0 48 0c-4.805 0-8.948 2.845-10.863 6.934l-3.213-1.186C33.962 5.502 34 5.256 34 5c0-2.757-2.243-5-5-5s-5 2.243-5 5 2.243 5 5 5c1.791 0 3.353-.955 4.236-2.374l3.208 1.184A11.93 11.93 0 0036 12c0 1.31.218 2.568.608 3.749L25.61 20.41C23.596 16.603 19.6 14 15 14c-1.49 0-2.912.286-4.23.784L8.004 8.971C9.209 8.057 10 6.625 10 5c0-2.757-2.243-5-5-5S0 2.243 0 5s2.243 5 5 5c.416 0 .815-.066 1.202-.163l2.763 5.807C5.404 17.728 3 21.584 3 26c0 4.148 2.116 7.81 5.324 9.965l-1.829 3.288A4.949 4.949 0 005 39c-2.757 0-5 2.243-5 5s2.243 5 5 5 5-2.243 5-5c0-1.514-.69-2.857-1.757-3.774l1.833-3.295A11.908 11.908 0 0015 38c2.744 0 5.268-.936 7.292-2.492l3.936 4.33C24.232 41.982 23 44.846 23 48c0 .612.061 1.208.149 1.795l-4.63 1.099C17.72 49.19 16.001 48 14 48c-2.757 0-5 2.243-5 5s2.243 5 5 5 5-2.243 5-5c0-.055-.015-.107-.016-.162l4.622-1.096C25.182 56.531 29.69 60 35 60c6.617 0 12-5.383 12-12a11.91 11.91 0 00-1.431-5.674l5.874-3.82A4.985 4.985 0 0055 40c2.757 0 5-2.243 5-5s-2.243-5-5-5-5 2.243-5 5c0 .646.133 1.26.357 1.827l-5.888 3.828A12.066 12.066 0 0040 37.105l4.88-13.53c.997.268 2.04.425 3.12.425zM29 8c-1.654 0-3-1.346-3-3s1.346-3 3-3 3 1.346 3 3-1.346 3-3 3zM2 5c0-1.654 1.346-3 3-3s3 1.346 3 3-1.346 3-3 3-3-1.346-3-3zm3 42c-1.654 0-3-1.346-3-3s1.346-3 3-3 3 1.346 3 3-1.346 3-3 3zm9 9c-1.654 0-3-1.346-3-3s1.346-3 3-3 3 1.346 3 3-1.346 3-3 3zm41-24c1.654 0 3 1.346 3 3s-1.346 3-3 3-3-1.346-3-3 1.346-3 3-3zM42.11 20.064C42.558 17.751 44.597 16 47 16h2c2.404 0 4.443 1.751 4.89 4.064A9.937 9.937 0 0148 22a9.937 9.937 0 01-5.89-1.936zM48 14c-1.654 0-3-1.346-3-3s1.346-3 3-3 3 1.346 3 3-1.346 3-3 3zm0-12c5.514 0 10 4.486 10 10 0 2.5-.93 4.784-2.452 6.54a7.084 7.084 0 00-3.982-4.046A4.975 4.975 0 0053 11c0-2.757-2.243-5-5-5s-5 2.243-5 5c0 1.36.549 2.592 1.434 3.494a7.084 7.084 0 00-3.982 4.045A9.947 9.947 0 0138 12c0-5.514 4.486-10 10-10zM5 26c0-5.514 4.486-10 10-10s10 4.486 10 10a9.95 9.95 0 01-2.466 6.555 7.085 7.085 0 00-3.987-4.06A4.978 4.978 0 0019.98 25c0-2.757-2.243-5-5-5s-5 2.243-5 5c0 1.36.549 2.592 1.434 3.494a7.082 7.082 0 00-3.977 4.029A9.947 9.947 0 015 26zm6.98-1c0-1.654 1.346-3 3-3s3 1.346 3 3-1.346 3-3 3-3-1.346-3-3zm-2.886 9.05c.45-2.306 2.487-4.05 4.886-4.05h2c2.408 0 4.451 1.757 4.891 4.077A9.932 9.932 0 0115 36a9.93 9.93 0 01-5.906-1.95zm20 22c.45-2.306 2.487-4.05 4.886-4.05h2c2.408 0 4.451 1.757 4.891 4.077A9.932 9.932 0 0135 58a9.93 9.93 0 01-5.906-1.95zM34.98 50c-1.654 0-3-1.346-3-3s1.346-3 3-3 3 1.346 3 3-1.346 3-3 3zM45 48a9.95 9.95 0 01-2.466 6.555 7.085 7.085 0 00-3.987-4.06A4.978 4.978 0 0039.98 47c0-2.757-2.243-5-5-5s-5 2.243-5 5c0 1.36.549 2.592 1.434 3.494a7.082 7.082 0 00-3.977 4.029A9.947 9.947 0 0125 48c0-5.514 4.486-10 10-10s10 4.486 10 10zm-6.88-11.574A11.955 11.955 0 0035 36c-2.744 0-5.268.936-7.292 2.492l-3.936-4.33C25.768 32.018 27 29.154 27 26c0-1.31-.218-2.568-.608-3.749L37.39 17.59a12.065 12.065 0 005.611 5.305l-4.882 13.53z" fill="#FF4A17"/></svg>