<svg width="60" height="60" fill="none" xmlns="http://www.w3.org/2000/svg"><path d="M53.09 42.343a.88.88 0 00-.96.19l-9.624 9.624a.88.88 0 00.623 1.504h9.624a.88.88 0 00.88-.88v-9.625a.88.88 0 00-.543-.813zM45.255 51.9l6.617-6.618V51.9h-6.617z" fill="#FF4A17"/><path d="M59.456 28.227a.88.88 0 00-.96.19l-2.637 2.638V13.122a.88.88 0 00-.88-.881h-6.767l2.456-2.456.001-.001 2.367-2.367a2.668 2.668 0 00.786-1.899 2.67 2.67 0 00-.786-1.899L50.299.883A2.668 2.668 0 0048.4.096c-.717 0-1.391.28-1.898.787L44.133 3.25l-2.862 2.862-6.129 6.129H7.807V3.529a.88.88 0 00-.88-.881A6.935 6.935 0 000 9.575v37.404c0 .065.007.129.02.19a6.633 6.633 0 001.995 4.269 6.632 6.632 0 004.656 1.894h26.91L28.515 58.4a.88.88 0 00.622 1.504H59.12a.88.88 0 00.881-.88V29.04a.88.88 0 00-.544-.813zM47.747 2.128a.925.925 0 011.307 0l2.737 2.737c.36.36.36.946 0 1.307l-1.745 1.745-4.044-4.044 1.745-1.745zm-2.99 2.99L48.8 9.163l-1.616 1.616-4.043-4.043 1.616-1.616zm13.482 33.818h-1.625a.88.88 0 100 1.761h1.625v2.654h-1.625a.88.88 0 100 1.761h1.625v2.654h-1.625a.88.88 0 100 1.761h1.625v2.654h-1.625a.88.88 0 000 1.762h1.625v4.2H31.262l8.896-8.896a.88.88 0 10-1.246-1.245l-3.569 3.569H6.671a4.882 4.882 0 01-4.905-4.751 5.18 5.18 0 01.038-.498v-.003c.01-.077.022-.155.036-.232l.005-.027a5.075 5.075 0 01.209-.791c.01-.03.02-.061.032-.092.022-.057.044-.115.068-.171l.02-.05a3.9 3.9 0 01.095-.208 5.184 5.184 0 013.608-2.827l.012-.002c.073-.015.147-.028.221-.04l.037-.006c.067-.01.135-.018.202-.026l.057-.007c.066-.007.131-.01.197-.015l.063-.005c.086-.004.173-.006.26-.006a.88.88 0 00.881-.88v-6.386a.88.88 0 10-1.761 0v5.56a6.879 6.879 0 00-4.285 2.26V9.575a5.174 5.174 0 014.285-5.09v26.54a.88.88 0 001.76 0V14.002h25.576l-4.868 4.869a.88.88 0 101.245 1.245l6.372-6.372 5.764-5.764 4.043 4.043-.474.475-.001.001-17.757 17.757-4.044-4.043 3.5-3.5a.88.88 0 10-1.245-1.246l-4.123 4.123a.86.86 0 00-.062.07l-.018.024a1.003 1.003 0 00-.036.05l-.019.032a.814.814 0 00-.027.05c-.006.01-.01.022-.016.033a.918.918 0 00-.022.053l-.008.018-1.715 4.86-1.17 3.314a.882.882 0 00-.035.134h-2.929a.88.88 0 000 1.761h24.389a.88.88 0 100-1.76H22.628l5.37-1.897.014-.005a.978.978 0 00.062-.026l.024-.01a.883.883 0 00.062-.035c.006-.005.013-.008.02-.012a.868.868 0 00.062-.044l.015-.012a.883.883 0 00.071-.063L46.45 14.002h7.648v18.814L41.5 45.414a.88.88 0 101.246 1.245L58.24 31.166v7.77zm-32.144-7.8l-2.523.89-1.68-1.68.89-2.522 3.313 3.312z" fill="#FF4A17"/></svg>