<svg width="60" height="60" fill="none" xmlns="http://www.w3.org/2000/svg"><path d="M55.595 14.348l2.91-2.91a1.759 1.759 0 00-1.095-2.994l-5.398-.456-.456-5.398a1.757 1.757 0 00-2.994-1.095l-2.91 2.91A29.84 29.84 0 0030 0C21.987 0 14.453 3.12 8.787 8.787 3.12 14.453 0 21.987 0 30c0 8.013 3.12 15.547 8.787 21.213C14.453 56.88 21.987 60 30 60c8.013 0 15.547-3.12 21.213-8.787C56.88 45.547 60 38.013 60 30a29.84 29.84 0 00-4.405-15.652zm-6.962-4.585c.072.854.75 1.532 1.604 1.604l3.106.262-4.204 4.204-4.585-.387-.387-4.585 4.204-4.204.262 3.106zM35.977 30A5.984 5.984 0 0130 35.977 5.984 5.984 0 0124.023 30 5.984 5.984 0 0130 24.023c1.01 0 1.96.253 2.795.696l-4.038 4.038a1.757 1.757 0 102.486 2.486l4.038-4.038c.443.835.696 1.786.696 2.795zm-.627-7.836A9.44 9.44 0 0030 20.508c-5.234 0-9.492 4.258-9.492 9.492 0 5.234 4.258 9.492 9.492 9.492 5.234 0 9.492-4.258 9.492-9.492a9.44 9.44 0 00-1.656-5.35l5.019-5.019A16.444 16.444 0 0146.523 30c0 9.11-7.412 16.523-16.523 16.523-9.11 0-16.523-7.412-16.523-16.523 0-9.11 7.412-16.523 16.523-16.523 3.923 0 7.532 1.375 10.369 3.668l-5.02 5.019zm13.377 26.563C43.725 53.73 37.074 56.484 30 56.484s-13.725-2.754-18.727-7.757C6.27 43.725 3.516 37.074 3.516 30s2.754-13.725 7.757-18.727C16.275 6.27 22.926 3.516 30 3.516A26.35 26.35 0 0143.087 6.97l-1.983 1.982a1.758 1.758 0 00-.51 1.391l.238 2.805A19.918 19.918 0 0030 9.96C18.95 9.96 9.96 18.95 9.96 30c0 11.05 8.99 20.04 20.04 20.04 11.05 0 20.04-8.99 20.04-20.04 0-3.988-1.172-7.706-3.188-10.832l2.805.237c.05.004.099.006.148.006l.025-.001c.023 0 .046-.002.07-.004.037-.002.076-.004.113-.009l.07-.01a1.8 1.8 0 00.11-.021l.07-.018a1.753 1.753 0 00.44-.186l.058-.035a1.88 1.88 0 00.102-.073c.016-.012.032-.022.047-.035a1.76 1.76 0 00.138-.123l1.982-1.983A26.349 26.349 0 0156.484 30c0 7.074-2.754 13.725-7.757 18.727z" fill="#FF4A17"/></svg>