<svg width="60" height="60" fill="none" xmlns="http://www.w3.org/2000/svg"><g clip-path="url(#clip0)" fill="#FF4A17"><path d="M57.234 57.656h-2.57v-37.32a3.154 3.154 0 00-3.15-3.15h-5.745a3.154 3.154 0 00-3.15 3.15v37.32h-6.527v-20.41a3.154 3.154 0 00-3.15-3.151h-5.745a3.154 3.154 0 00-3.15 3.15v20.411H17.52v-10.57a3.154 3.154 0 00-3.15-3.15H8.625a3.154 3.154 0 00-3.15 3.15v10.57h-2.71a1.172 1.172 0 100 2.344h54.47a1.172 1.172 0 100-2.344zm-42.058 0H7.818v-10.57c0-.445.362-.807.807-.807h5.745c.445 0 .806.362.806.806v10.571zm18.572 0H26.39v-20.41c0-.446.362-.807.807-.807h5.745c.444 0 .806.361.806.806v20.411zm18.572 0h-7.358v-37.32c0-.444.362-.806.807-.806h5.745c.445 0 .806.361.806.806v37.32zm2.341-56.424a1.168 1.168 0 00-1.23-1.23L53.376 0h-7.09a1.172 1.172 0 100 2.344h4.378L39.078 13.929l-4.369-4.37a1.172 1.172 0 00-1.657 0L11.986 30.628a1.172 1.172 0 001.657 1.657L33.88 12.046l4.369 4.369c.457.457 1.2.457 1.657 0L52.32 4v3.962a1.172 1.172 0 002.344 0V1.29l-.003-.057zM8.864 36.716a1.172 1.172 0 100-2.344 1.172 1.172 0 000 2.344z"/></g><defs><clipPath id="clip0"><path fill="#fff" d="M0 0h60v60H0z"/></clipPath></defs></svg>