<svg width="18" height="18" fill="none" xmlns="http://www.w3.org/2000/svg"><g clip-path="url(#clip0)" fill="#fff"><path d="M9 18c4.962 0 9-4.037 9-9 0-.857-.12-1.7-.356-2.51a.75.75 0 10-1.44.422c.196.672.296 1.374.296 2.088 0 4.135-3.365 7.5-7.5 7.5S1.5 13.135 1.5 9 4.865 1.5 9 1.5a7.45 7.45 0 014.182 1.27.75.75 0 00.838-1.243A8.944 8.944 0 009 0C4.038 0 0 4.037 0 9s4.038 9 9 9z"/><path d="M16.72 1.72L9 9.439l-2.47-2.47A.75.75 0 005.47 8.03l3 3a.747.747 0 001.06 0l8.25-8.25a.75.75 0 00-1.06-1.06z"/></g><defs><clipPath id="clip0"><path fill="#fff" d="M0 0h18v18H0z"/></clipPath></defs></svg>