<svg width="100" height="100" fill="none" xmlns="http://www.w3.org/2000/svg"><circle cx="50" cy="50" r="49" fill="#14212B" stroke="#1D2D3A" stroke-width="2"/><g clip-path="url(#clip0)" fill="#1D2D3A"><path d="M55.484 49a1.003 1.003 0 01-1.42.91L49.985 48l-4.08 1.91a1.003 1.003 0 01-1.42-.91c0-.15.03-.28.09-.41l4.5-10c.15-.35.5-.59.91-.59.41 0 .76.24.91.59l4.5 10c.06.13.09.26.09.41z"/><path d="M49.984 62c-6.065 0-11-4.935-11-11a10.9 10.9 0 014.073-8.53 1 1 0 111.255 1.558A8.909 8.909 0 0040.983 51c0 4.962 4.037 9 9 9s9-4.038 9-9a8.906 8.906 0 00-3.327-6.971 1 1 0 111.254-1.557A10.893 10.893 0 0160.984 51c0 6.065-4.935 11-11 11z"/></g><defs><clipPath id="clip0"><path fill="#fff" transform="translate(38 38)" d="M0 0h24v24H0z"/></clipPath></defs></svg>