<svg width="141" height="38" fill="none" xmlns="http://www.w3.org/2000/svg"><path d="M36.081 27.227c-7.353 4.01-16.735 1.696-21.086-5.156-4.43-6.978-1.909-16.186 5.55-20.256.228-.125.46-.243.692-.356.739-.358.491-1.411-.338-1.443A20.945 20.945 0 009.78 2.694C.367 8.007-2.797 19.556 2.698 28.52c5.56 9.07 17.848 12.173 27.46 6.932 3.418-1.865 6.037-4.534 7.744-7.608.387-.697-.45-1.43-1.15-1.004-.22.134-.443.263-.671.387z" fill="#FF9679"/><path d="M36.081 27.227c-7.353 4.01-16.735 1.696-21.086-5.156-4.43-6.978-1.909-16.186 5.55-20.256.228-.125.46-.243.692-.356.739-.358.491-1.411-.338-1.443A20.945 20.945 0 009.78 2.694C.367 8.007-2.797 19.556 2.698 28.52c5.56 9.07 17.848 12.173 27.46 6.932 3.418-1.865 6.037-4.534 7.744-7.608.387-.697-.45-1.43-1.15-1.004-.22.134-.443.263-.671.387z" fill="#FF9679"/><path d="M36.081 27.228c-6.39 3.484-14.31 2.193-19.131-2.7-4.18 3.495-9.102 5.332-13.56 5.042 5.838 8.252 17.536 10.916 26.766 5.882 3.418-1.864 6.037-4.534 7.745-7.608.387-.697-.45-1.43-1.15-1.004a15.89 15.89 0 01-.671.388zM25.805 12.929l.335-.136a.217.217 0 000-.406l-.335-.136c-1.288-.521-2.278-1.538-2.721-2.793l-.308-.872c-.07-.202-.373-.202-.444 0l-.308.872c-.443 1.255-1.433 2.272-2.72 2.793l-.335.136a.217.217 0 000 .406l.334.136c1.288.521 2.278 1.538 2.721 2.793l.308.872c.071.202.373.202.444 0l.308-.872c.443-1.255 1.433-2.272 2.721-2.793zm8.098 7.886l.167-.068a.217.217 0 000-.406l-.167-.068c-1.03-.417-1.823-1.23-2.177-2.235l-.202-.571c-.071-.202-.373-.202-.444 0l-.202.571c-.354 1.005-1.147 1.818-2.177 2.235l-.167.068a.217.217 0 000 .406l.167.068c1.03.417 1.823 1.23 2.177 2.235l.202.572c.07.201.373.201.444 0l.202-.572c.354-1.005 1.146-1.818 2.177-2.235zm.739-11.111a.217.217 0 000-.406 2.848 2.848 0 01-1.633-1.676l-.095-.272c-.071-.201-.373-.201-.445 0l-.095.272a2.847 2.847 0 01-1.633 1.676.217.217 0 000 .406 2.847 2.847 0 011.633 1.677l.095.271c.072.202.373.202.445 0l.095-.271a2.848 2.848 0 011.633-1.677z" fill="#FF4A17"/><path d="M53.148 16.478h4.454c1.198 0 2.057-.182 2.578-.547.52-.364.78-.95.78-1.758 0-.416.392-.625 1.173-.625.807 0 1.21.209 1.21.625v7.422c0 .443-.403.664-1.21.664-.781 0-1.172-.221-1.172-.664 0-.781-.273-1.38-.82-1.797-.521-.416-1.38-.625-2.578-.625h-4.415V32.69h-4.18V8.861c0-.833-.09-1.406-.273-1.719-.156-.312-.377-.508-.664-.586a5.057 5.057 0 01-.937-.39c-.287-.183-.43-.456-.43-.82 0-.652.456-.977 1.367-.977h16.602l.195 4.882c0 .678-.39 1.03-1.172 1.055-.781 0-1.25-.338-1.406-1.015-.182-.73-.443-1.277-.781-1.641-.339-.365-1.068-.547-2.188-.547H54.75c-1.068 0-1.602.508-1.602 1.523v7.852zm19.415.156h4.453c1.197 0 2.057-.182 2.578-.547.52-.364.781-.95.781-1.757 0-.417.39-.625 1.172-.625.807 0 1.21.208 1.21.625v7.421c0 .443-.403.665-1.21.665-.781 0-1.172-.222-1.172-.665 0-.78-.273-1.38-.82-1.796-.521-.417-1.368-.625-2.54-.625h-4.453v9.18c0 .937.547 1.405 1.641 1.405h5.156c1.068 0 1.784-.273 2.149-.82.364-.547.612-1.12.742-1.718.13-.704.612-1.016 1.445-.938.834.078 1.25.417 1.25 1.016l-.273 5.234h-16.29V8.861c0-.833-.064-1.393-.195-1.68-.104-.286-.325-.482-.664-.586a5.884 5.884 0 01-1.054-.43c-.26-.182-.39-.455-.39-.82 0-.65.455-.976 1.366-.976h16.602l.195 4.882c0 .678-.416 1.03-1.25 1.055-.833 0-1.276-.351-1.328-1.055-.052-.442-.273-.898-.664-1.367-.365-.495-1.133-.742-2.305-.742h-4.53c-1.069 0-1.603.482-1.603 1.445v8.047zm14.14 2.032c0-4.48.73-8.021 2.188-10.625 1.458-2.63 3.554-3.946 6.289-3.946 2.76 0 4.856 1.315 6.289 3.946 1.458 2.604 2.187 6.145 2.187 10.625 0 4.479-.729 8.02-2.187 10.625-1.433 2.604-3.529 3.906-6.29 3.906-2.734 0-4.83-1.302-6.288-3.907-1.459-2.604-2.188-6.145-2.188-10.624zm4.375 0c0 4.114.404 7.096 1.211 8.945.833 1.823 1.797 2.734 2.89 2.734 1.094 0 2.058-.911 2.891-2.734.834-1.85 1.25-4.83 1.25-8.945 0-4.141-.416-7.123-1.25-8.946-.833-1.823-1.797-2.734-2.89-2.734-1.094 0-2.058.911-2.89 2.734-.808 1.823-1.212 4.805-1.212 8.946zm13.633 0c0-4.48.729-8.021 2.187-10.625 1.459-2.63 3.555-3.946 6.29-3.946 2.76 0 4.856 1.315 6.289 3.946 1.458 2.604 2.187 6.145 2.187 10.625 0 4.479-.729 8.02-2.187 10.625-1.433 2.604-3.529 3.906-6.289 3.906-2.735 0-4.831-1.302-6.29-3.907-1.458-2.604-2.187-6.145-2.187-10.624zm4.375 0c0 4.114.404 7.096 1.211 8.945.833 1.823 1.797 2.734 2.891 2.734 1.093 0 2.057-.911 2.89-2.734.833-1.85 1.25-4.83 1.25-8.945 0-4.141-.417-7.123-1.25-8.946-.833-1.823-1.797-2.734-2.89-2.734-1.094 0-2.058.911-2.891 2.734-.807 1.823-1.211 4.805-1.211 8.946zm23.476 6.289h-10.234v-2.578l10.195-18.282h4.18v17.969h3.399v2.89h-3.399v7.774h-4.141v-7.773zm-6.132-2.891h6.132v-11.25l-6.132 11.25z" fill="#fff"/></svg>