<svg width="141" height="41" fill="none" xmlns="http://www.w3.org/2000/svg"><path d="M36.081 28.824c-7.353 4.246-16.735 1.795-21.086-5.46-4.43-7.386-1.909-17.133 5.55-21.442.228-.132.46-.258.692-.378.739-.379.491-1.494-.338-1.527A20.02 20.02 0 009.78 2.852C.367 8.476-2.797 20.702 2.698 30.192c5.56 9.602 17.848 12.888 27.46 7.339a20.013 20.013 0 007.744-8.054c.387-.738-.45-1.515-1.15-1.063-.22.142-.443.278-.671.41z" fill="#FF9679"/><path d="M36.081 28.824c-7.353 4.246-16.735 1.795-21.086-5.46-4.43-7.386-1.909-17.133 5.55-21.442.228-.132.46-.258.692-.378.739-.379.491-1.494-.338-1.527A20.02 20.02 0 009.78 2.852C.367 8.476-2.797 20.702 2.698 30.192c5.56 9.602 17.848 12.888 27.46 7.339a20.013 20.013 0 007.744-8.054c.387-.738-.45-1.515-1.15-1.063-.22.142-.443.278-.671.41z" fill="#FF9679"/><path d="M36.081 28.824c-6.39 3.69-14.31 2.322-19.131-2.858-4.179 3.701-9.102 5.646-13.559 5.337C9.23 40.04 20.927 42.86 30.157 37.531a20.012 20.012 0 007.745-8.054c.387-.738-.45-1.515-1.15-1.063-.22.142-.443.278-.671.41zM25.805 13.687l.335-.144a.234.234 0 000-.43l-.335-.143a4.905 4.905 0 01-2.721-2.958l-.308-.923a.234.234 0 00-.444 0l-.308.923a4.905 4.905 0 01-2.72 2.957l-.335.144a.234.234 0 000 .43l.334.144a4.905 4.905 0 012.721 2.957l.308.923a.234.234 0 00.444 0l.308-.923a4.905 4.905 0 012.721-2.957zm8.098 8.349l.167-.072a.234.234 0 000-.43l-.167-.072a3.924 3.924 0 01-2.177-2.366l-.202-.605a.234.234 0 00-.444 0l-.202.605a3.924 3.924 0 01-2.177 2.366l-.167.072a.234.234 0 000 .43l.167.072a3.925 3.925 0 012.177 2.366l.202.605a.234.234 0 00.444 0l.202-.605a3.924 3.924 0 012.177-2.366zm.739-11.763a.234.234 0 000-.43 2.944 2.944 0 01-1.633-1.775l-.095-.287a.234.234 0 00-.445 0l-.095.287a2.943 2.943 0 01-1.633 1.775.234.234 0 000 .43 2.943 2.943 0 011.633 1.775l.095.287a.234.234 0 00.445 0l.095-.287a2.944 2.944 0 011.633-1.775zm18.506 7.579h4.454c1.198 0 2.057-.183 2.578-.547.52-.365.78-.95.78-1.758 0-.417.392-.625 1.173-.625.807 0 1.21.208 1.21.625v7.422c0 .442-.403.664-1.21.664-.781 0-1.172-.221-1.172-.664 0-.782-.273-1.38-.82-1.797-.521-.417-1.38-.625-2.578-.625h-4.415v13.515h-4.18V10.235c0-.833-.09-1.406-.273-1.718-.156-.313-.377-.508-.664-.586a5.058 5.058 0 01-.937-.39c-.287-.183-.43-.457-.43-.821 0-.651.456-.977 1.367-.977h16.602l.195 4.883c0 .677-.39 1.029-1.172 1.055-.781 0-1.25-.339-1.406-1.016-.182-.73-.443-1.276-.781-1.64-.339-.365-1.068-.547-2.188-.547H54.75c-1.068 0-1.602.507-1.602 1.523v7.852zm19.415.156h4.453c1.197 0 2.057-.182 2.578-.547.52-.365.781-.95.781-1.758 0-.416.39-.625 1.172-.625.807 0 1.21.209 1.21.625v7.422c0 .443-.403.664-1.21.664-.781 0-1.172-.221-1.172-.664 0-.781-.273-1.38-.82-1.797-.521-.416-1.368-.625-2.54-.625h-4.453v9.18c0 .937.547 1.406 1.641 1.406h5.156c1.068 0 1.784-.273 2.149-.82.364-.547.612-1.12.742-1.719.13-.703.612-1.016 1.445-.938.834.079 1.25.417 1.25 1.016l-.273 5.235h-16.29v-23.83c0-.833-.064-1.393-.195-1.68-.104-.286-.325-.481-.664-.585a5.884 5.884 0 01-1.054-.43c-.26-.182-.39-.456-.39-.82 0-.651.455-.977 1.366-.977h16.602l.195 4.883c0 .677-.416 1.029-1.25 1.055-.833 0-1.276-.352-1.328-1.055-.052-.443-.273-.898-.664-1.367-.365-.495-1.133-.742-2.305-.742h-4.53c-1.069 0-1.603.481-1.603 1.445v8.047zm14.14 2.032c0-4.48.73-8.022 2.188-10.626 1.458-2.63 3.554-3.945 6.289-3.945 2.76 0 4.856 1.315 6.289 3.945 1.458 2.604 2.187 6.146 2.187 10.625 0 4.48-.729 8.02-2.187 10.625-1.433 2.604-3.529 3.906-6.29 3.906-2.734 0-4.83-1.302-6.288-3.906-1.459-2.604-2.188-6.146-2.188-10.625zm4.375 0c0 4.114.404 7.095 1.211 8.944.833 1.823 1.797 2.735 2.89 2.735 1.094 0 2.058-.912 2.891-2.735.834-1.849 1.25-4.83 1.25-8.945 0-4.14-.416-7.122-1.25-8.945-.833-1.823-1.797-2.735-2.89-2.735-1.094 0-2.058.912-2.89 2.735-.808 1.823-1.212 4.804-1.212 8.945zm13.633 0c0-4.48.729-8.022 2.187-10.626 1.459-2.63 3.555-3.945 6.29-3.945 2.76 0 4.856 1.315 6.289 3.945 1.458 2.604 2.187 6.146 2.187 10.625 0 4.48-.729 8.02-2.187 10.625-1.433 2.604-3.529 3.906-6.289 3.906-2.735 0-4.831-1.302-6.29-3.906-1.458-2.604-2.187-6.146-2.187-10.625zm4.375 0c0 4.114.404 7.095 1.211 8.944.833 1.823 1.797 2.735 2.891 2.735 1.093 0 2.057-.912 2.89-2.735.833-1.849 1.25-4.83 1.25-8.945 0-4.14-.417-7.122-1.25-8.945-.833-1.823-1.797-2.735-2.89-2.735-1.094 0-2.058.912-2.891 2.735-.807 1.823-1.211 4.804-1.211 8.945zm23.476 6.288h-10.234V23.75l10.195-18.281h4.18v17.968h3.399v2.891h-3.399v7.774h-4.141v-7.774zm-6.132-2.89h6.132v-11.25l-6.132 11.25z" fill="#FF4A17"/></svg>